<svg width="20" height="20" viewBox="0 0 20 20" fill="none" xmlns="http://www.w3.org/2000/svg">
<path d="M17.3666 3.84167C16.941 3.41584 16.4356 3.07804 15.8794 2.84757C15.3232 2.6171 14.727 2.49848 14.1249 2.49848C13.5229 2.49848 12.9267 2.6171 12.3705 2.84757C11.8143 3.07804 11.3089 3.41584 10.8833 3.84167L9.99994 4.725L9.1166 3.84167C8.25686 2.98193 7.0908 2.49893 5.87494 2.49893C4.65908 2.49893 3.49301 2.98193 2.63327 3.84167C1.77353 4.70141 1.29053 5.86748 1.29053 7.08334C1.29053 8.2992 1.77353 9.46526 2.63327 10.325L9.99994 17.6917L17.3666 10.325C17.7924 9.89937 18.1302 9.39401 18.3607 8.8378C18.5912 8.28158 18.7098 7.68541 18.7098 7.08334C18.7098 6.48126 18.5912 5.88509 18.3607 5.32887C18.1302 4.77266 17.7924 4.2673 17.3666 3.84167Z" stroke="#F5F5F5" stroke-width="2" stroke-linecap="round" stroke-linejoin="round"/>
</svg>
