<svg width="298" height="300" viewBox="0 0 298 300" fill="none" xmlns="http://www.w3.org/2000/svg">
<circle cx="148.5" cy="149.5" r="43" stroke="white" stroke-width="5"/>
<rect x="144" y="39" width="10" height="66" fill="white"/>
<circle cx="149.5" cy="20.5" r="18" stroke="white" stroke-width="5"/>
<rect x="221.376" y="67" width="10" height="66" transform="rotate(44.6414 221.376 67)" fill="white"/>
<circle cx="237.367" cy="56.9908" r="18" transform="rotate(44.6414 237.367 56.9908)" stroke="white" stroke-width="5"/>
<rect x="259" y="145" width="10" height="66" transform="rotate(90 259 145)" fill="white"/>
<circle cx="277.5" cy="149.5" r="18" transform="rotate(90 277.5 149.5)" stroke="white" stroke-width="5"/>
<rect x="229.74" y="224.669" width="10" height="66" transform="rotate(135 229.74 224.669)" fill="white"/>
<circle cx="237.661" cy="239.66" r="18" transform="rotate(135 237.661 239.66)" stroke="white" stroke-width="5"/>
<rect x="153" y="260" width="10" height="66" transform="rotate(180 153 260)" fill="white"/>
<circle cx="147.5" cy="279.5" r="18" transform="rotate(180 147.5 279.5)" stroke="white" stroke-width="5"/>
<rect x="72.071" y="229.74" width="10" height="66" transform="rotate(-135 72.071 229.74)" fill="white"/>
<path d="M43.2677 251.719C36.2382 244.69 36.2382 233.293 43.2677 226.263C50.2971 219.234 61.6941 219.234 68.7235 226.263C75.753 233.293 75.753 244.69 68.7235 251.719C61.6941 258.749 50.2971 258.749 43.2677 251.719Z" stroke="white" stroke-width="5"/>
<rect x="40" y="154" width="10" height="66" transform="rotate(-90 40 154)" fill="white"/>
<path d="M2.5 149C2.5 139.059 10.5589 131 20.5 131C30.4411 131 38.5 139.059 38.5 149C38.5 158.941 30.4411 167 20.5 167C10.5589 167 2.5 158.941 2.5 149Z" stroke="white" stroke-width="5"/>
<rect x="68" y="76.071" width="10" height="66" transform="rotate(-45 68 76.071)" fill="white"/>
<path d="M44.7764 45.951C51.8058 38.9216 63.2028 38.9216 70.2322 45.951C77.2617 52.9805 77.2617 64.3774 70.2322 71.4069C63.2028 78.4363 51.8058 78.4363 44.7764 71.4069C37.747 64.3774 37.747 52.9805 44.7764 45.951Z" stroke="white" stroke-width="5"/>
<path d="M126.841 158H120.125V140.545H126.773C128.568 140.545 130.119 140.895 131.426 141.594C132.739 142.287 133.75 143.287 134.46 144.594C135.176 145.895 135.534 147.455 135.534 149.273C135.534 151.091 135.179 152.653 134.469 153.96C133.759 155.261 132.753 156.261 131.452 156.96C130.151 157.653 128.614 158 126.841 158ZM124.864 153.977H126.67C127.534 153.977 128.27 153.838 128.878 153.56C129.491 153.281 129.957 152.801 130.276 152.119C130.599 151.437 130.761 150.489 130.761 149.273C130.761 148.057 130.597 147.108 130.267 146.426C129.943 145.744 129.466 145.264 128.835 144.986C128.21 144.707 127.443 144.568 126.534 144.568H124.864V153.977ZM141.057 158L135.909 140.545H141.193L143.58 151.284H143.716L146.545 140.545H150.705L153.534 151.318H153.67L156.057 140.545H161.341L156.193 158H151.659L148.693 148.25H148.557L145.591 158H141.057ZM172.003 146C171.957 145.432 171.744 144.989 171.364 144.67C170.989 144.352 170.418 144.193 169.651 144.193C169.162 144.193 168.761 144.253 168.449 144.372C168.142 144.486 167.915 144.642 167.767 144.841C167.619 145.04 167.543 145.267 167.537 145.523C167.526 145.733 167.563 145.923 167.648 146.094C167.739 146.259 167.881 146.409 168.074 146.545C168.267 146.676 168.514 146.795 168.815 146.903C169.116 147.011 169.474 147.108 169.889 147.193L171.321 147.5C172.287 147.705 173.114 147.974 173.801 148.31C174.489 148.645 175.051 149.04 175.489 149.494C175.926 149.943 176.247 150.449 176.452 151.011C176.662 151.574 176.77 152.187 176.776 152.852C176.77 154 176.483 154.972 175.915 155.767C175.347 156.562 174.534 157.168 173.477 157.582C172.426 157.997 171.162 158.205 169.685 158.205C168.168 158.205 166.844 157.98 165.713 157.531C164.588 157.082 163.713 156.392 163.088 155.46C162.469 154.523 162.156 153.324 162.151 151.864H166.651C166.679 152.398 166.813 152.847 167.051 153.21C167.29 153.574 167.625 153.849 168.057 154.037C168.494 154.224 169.014 154.318 169.616 154.318C170.122 154.318 170.545 154.256 170.886 154.131C171.227 154.006 171.486 153.832 171.662 153.611C171.838 153.389 171.929 153.136 171.935 152.852C171.929 152.585 171.841 152.352 171.67 152.153C171.506 151.949 171.233 151.767 170.852 151.608C170.472 151.443 169.957 151.29 169.31 151.148L167.571 150.773C166.026 150.437 164.807 149.878 163.915 149.094C163.028 148.304 162.588 147.227 162.594 145.864C162.588 144.756 162.884 143.787 163.48 142.957C164.082 142.122 164.915 141.472 165.977 141.006C167.045 140.54 168.27 140.307 169.651 140.307C171.06 140.307 172.278 140.543 173.307 141.014C174.335 141.486 175.128 142.151 175.685 143.009C176.247 143.861 176.531 144.858 176.537 146H172.003Z" fill="white"/>
<rect x="112" y="79" width="10" height="36.7323" transform="rotate(-30 112 79)" fill="white"/>
<circle cx="110" cy="65" r="12.5" stroke="white" stroke-width="5"/>
<rect x="176.049" y="75.2224" width="10" height="36.7323" transform="rotate(30 176.049 75.2224)" fill="white"/>
<circle cx="187.174" cy="66.4904" r="12.5" transform="rotate(60 187.174 66.4904)" stroke="white" stroke-width="5"/>
<rect x="219.235" y="113.988" width="10" height="36.7323" transform="rotate(65 219.235 113.988)" fill="white"/>
<circle cx="233.356" cy="113.216" r="12.5" transform="rotate(95 233.356 113.216)" stroke="white" stroke-width="5"/>
<rect x="222.069" y="174.507" width="10" height="36.7323" transform="rotate(105 222.069 174.507)" fill="white"/>
<circle cx="232.747" cy="182.145" r="12.5" transform="rotate(135 232.747 182.145)" stroke="white" stroke-width="5"/>
<rect x="181.024" y="224.349" width="10" height="36.7323" transform="rotate(160.904 181.024 224.349)" fill="white"/>
<circle cx="180.34" cy="238.475" r="12.5" transform="rotate(-169.096 180.34 238.475)" stroke="white" stroke-width="5"/>
<rect x="124.453" y="226.791" width="10" height="36.7323" transform="rotate(-157.397 124.453 226.791)" fill="white"/>
<circle cx="114.546" cy="236.883" r="12.5" transform="rotate(-127.397 114.546 236.883)" stroke="white" stroke-width="5"/>
<rect x="78.157" y="188.295" width="10" height="36.7323" transform="rotate(-119.466 78.157 188.295)" fill="white"/>
<circle cx="64.139" cy="190.165" r="12.5" transform="rotate(-89.4664 64.139 190.165)" stroke="white" stroke-width="5"/>
<rect x="72.8772" y="124.51" width="10" height="36.7323" transform="rotate(-70 72.8772 124.51)" fill="white"/>
<circle cx="62.3461" cy="115.071" r="12.5" transform="rotate(-40 62.3461 115.071)" stroke="white" stroke-width="5"/>
</svg>
